<svg xmlns="http://www.w3.org/2000/svg" viewBox="0 0 960 420" role="img" aria-labelledby="title desc">
  <title id="title">Current investigation workflow</title>
  <desc id="desc">Fragmented support evidence is organized in Current into deterministic findings, timelines, facts, and hypotheses that produce reviewable handoffs, customer-safe summaries, reusable knowledge, and an auditable record.</desc>
  <defs>
    <linearGradient id="panel" x1="0" x2="1">
      <stop offset="0" stop-color="#F7FBFB"/>
      <stop offset="1" stop-color="#EAF3F4"/>
    </linearGradient>
    <filter id="shadow" x="-10%" y="-10%" width="120%" height="130%">
      <feDropShadow dx="0" dy="8" stdDeviation="12" flood-color="#022B3A" flood-opacity="0.08"/>
    </filter>
  </defs>
  <rect x="1" y="1" width="958" height="418" rx="28" fill="url(#panel)" stroke="#D4E4E6"/>
  <g font-family="Arial, sans-serif">
    <g fill="#FFFFFF" stroke="#BCDADD" stroke-width="2" filter="url(#shadow)">
      <rect x="24" y="68" width="252" height="284" rx="18"/>
      <rect x="354" y="68" width="252" height="284" rx="18"/>
      <rect x="684" y="68" width="252" height="284" rx="18"/>
    </g>
    <g fill="#022B3A" font-weight="700" font-size="20">
      <text x="48" y="112">Fragmented evidence</text>
      <text x="378" y="112">Current workspace</text>
      <text x="708" y="112">Grounded outcomes</text>
    </g>
    <g fill="#60757D" font-size="15.5">
      <text x="48" y="164">Tickets and comments</text>
      <text x="48" y="198">Logs and commands</text>
      <text x="48" y="232">Files and screenshots</text>
      <text x="48" y="266">Notes and documentation</text>
      <text x="378" y="164">Evidence normalization</text>
      <text x="378" y="198">Deterministic analysis</text>
      <text x="378" y="232">Timeline and findings</text>
      <text x="378" y="266">Facts and hypotheses</text>
      <text x="708" y="164">Reviewable handoffs</text>
      <text x="708" y="198">Customer-safe summaries</text>
      <text x="708" y="232">Reusable knowledge</text>
      <text x="708" y="266">Auditable record</text>
    </g>
    <g stroke="#00A896" stroke-width="5" fill="none" stroke-linecap="round" stroke-linejoin="round">
      <path d="M298 210h38"/>
      <path d="M628 210h38"/>
    </g>
    <g fill="#00A896">
      <path d="M336 210l-13-9v18z"/>
      <path d="M666 210l-13-9v18z"/>
    </g>
  </g>
</svg>
